<svg version="1.1" id="Layer_1" xmlns="http://www.w3.org/2000/svg" xmlns:xlink="http://www.w3.org/1999/xlink" x="0px" y="0px"
	 width="100%" viewBox="0 0 440 440" enable-background="new 0 0 440 440" xml:space="preserve">
<path fill="#ff8100" opacity="1.000000" stroke="none" 
	d="
M381.772766,361.726685 
	C367.833008,377.143158 352.583191,390.406097 335.283081,401.405121 
	C313.366638,415.339081 289.876801,425.290100 264.345428,429.887268 
	C252.459381,432.027466 240.333801,433.110168 228.266312,433.917419 
	C195.061035,436.138611 163.536163,429.158783 133.270782,415.715851 
	C115.587852,407.861664 99.551300,397.513641 84.611481,385.222839 
	C60.719219,365.567017 42.163784,341.750793 28.665485,314.071625 
	C19.233559,294.730865 12.524112,274.392395 10.031885,252.885025 
	C8.804619,242.293976 7.036489,231.635284 7.248027,221.041840 
	C7.495591,208.644302 9.398956,196.254089 11.002402,183.915054 
	C13.794230,162.431046 21.127899,142.334702 31.046934,123.223480 
	C40.182999,105.620827 51.603447,89.635704 65.229057,75.054108 
	C83.325630,55.687866 104.166542,40.219940 127.874489,28.727703 
	C147.225067,19.347670 167.516769,12.456961 189.051056,10.039727 
	C197.535416,9.087356 206.071533,8.538123 214.597229,8.022783 
	C241.495560,6.396904 267.442017,10.935941 292.780426,19.888441 
	C316.523254,28.277191 337.874573,40.641819 357.253601,56.677513 
	C376.651886,72.729149 392.753326,91.586700 405.520660,113.175751 
	C417.243103,132.997879 425.675018,154.291336 429.854340,176.979279 
	C432.011841,188.691589 432.871826,200.662781 433.912079,212.552521 
	C434.420441,218.362854 433.877014,224.257538 434.023987,230.108643 
	C434.410126,245.481628 431.903320,260.601196 427.658997,275.142639 
	C423.365082,289.853760 418.069550,304.552948 410.983917,318.090820 
	C403.713837,331.981018 393.751892,344.463226 384.948914,357.548798 
	C384.039398,358.900787 382.999664,360.165222 381.772766,361.726685 
M408.930939,173.754913 
	C404.165680,157.902969 398.623444,142.416748 390.505066,127.853653 
	C377.290955,104.149796 360.156891,83.833893 338.673340,67.402931 
	C318.914307,52.290951 297.066528,40.818386 272.880524,34.573849 
	C261.416931,31.614084 249.640442,29.476215 237.871857,28.209705 
	C228.292191,27.178757 218.490036,27.583242 208.829300,28.120434 
	C199.703384,28.627884 190.448792,29.335999 181.577240,31.375683 
	C163.545517,35.521404 146.119278,41.493923 129.774246,50.545788 
	C108.921997,62.093742 90.423477,76.312256 74.870834,94.489639 
	C60.755722,110.986885 49.339779,129.027817 41.393108,149.216019 
	C31.110294,175.339127 26.134827,202.230698 27.787609,230.522034 
	C28.980259,250.937103 32.982098,270.501129 40.009033,289.573944 
	C48.565739,312.798950 61.599968,333.378021 78.209709,351.525391 
	C96.065758,371.034393 117.240623,386.114777 141.395798,397.261200 
	C166.111481,408.666260 192.067764,414.072418 218.984818,414.787506 
	C229.899857,415.077484 240.918655,413.327026 251.817871,411.937286 
	C271.314697,409.451172 289.749695,403.113831 307.155426,394.244629 
	C332.383118,381.389648 354.094177,364.100769 371.911072,341.803406 
	C387.052979,322.853699 398.544220,301.973083 405.730072,279.039795 
	C412.528351,257.343506 416.511139,234.931992 413.949982,211.958084 
	C412.558411,199.475815 410.661224,187.049896 408.930939,173.754913 
z"/>
<path fill="#ff8100" opacity="1.000000" stroke="none" 
	d="
M203.250183,187.749908 
	C205.935837,190.680328 208.371429,193.360733 211.693970,197.017242 
	C211.693970,160.234222 211.693970,125.010201 211.693970,88.827507 
	C207.909241,92.608963 204.502167,96.037575 201.067734,99.438568 
	C196.339691,104.120560 190.929779,104.423676 186.758911,100.268471 
	C182.632187,96.157265 182.762482,89.791229 187.194122,85.327484 
	C196.234863,76.221230 205.305450,67.144135 214.421326,58.113163 
	C219.063644,53.514091 225.000275,53.559982 229.688034,58.208523 
	C238.681610,67.126854 247.633728,76.087234 256.566528,85.066475 
	C261.610199,90.136322 262.411011,96.060318 258.662872,99.825462 
	C254.278076,104.230156 246.596176,104.043167 241.903732,99.412483 
	C238.583435,96.135864 235.270554,92.851707 231.943588,89.581871 
	C231.871780,89.511299 231.669983,89.573021 231.264374,89.573021 
	C231.264374,124.807312 231.264374,160.030563 231.264374,194.169525 
	C243.996399,181.439056 257.306152,168.130936 270.347046,155.091644 
	C270.526672,155.100525 269.497375,155.085159 268.474945,154.993225 
	C262.367371,154.443985 257.680939,149.582718 258.038666,144.188263 
	C258.410431,138.582169 262.724670,135.004364 269.132660,135.001266 
	C278.299286,134.996841 287.465942,134.989059 296.632538,135.004364 
	C302.117615,135.013519 306.929810,139.676041 306.977386,145.221588 
	C307.058899,154.720856 307.013733,164.221359 306.995087,173.721283 
	C306.983063,179.833984 303.563629,183.770432 298.127747,183.999405 
	C292.105530,184.253082 287.452148,180.158081 287.002808,174.200897 
	C286.929474,173.228485 286.890869,172.253448 286.898254,172.384750 
	C274.152893,185.151871 260.971100,198.356186 248.718857,210.629379 
	C281.444550,210.629379 316.407471,210.629379 352.550507,210.629379 
	C348.623901,206.853760 345.249878,203.752670 342.040771,200.489380 
	C337.530579,195.902954 337.237305,189.319565 341.216766,185.269638 
	C344.870880,181.550827 351.653870,182.168915 356.170166,186.673340 
	C365.256073,195.735397 374.335938,204.803619 383.393341,213.894180 
	C388.611084,219.131042 388.554932,223.922226 383.246857,229.245056 
	C374.538513,237.977631 365.825470,246.705597 357.089722,255.410797 
	C352.282745,260.200958 346.063385,260.533539 341.783661,256.293701 
	C337.474579,252.024780 337.829803,246.628220 342.885254,241.656555 
	C346.181366,238.415070 349.620758,235.319275 353.895599,231.315598 
	C317.246094,231.315598 282.024323,231.315598 248.016373,231.315598 
	C260.624451,243.876343 273.952057,257.153961 287.279694,270.431549 
	C287.030060,270.822540 286.780396,271.213531 286.530762,271.604523 
	C286.933563,269.005432 286.883850,266.225159 287.836517,263.846283 
	C289.633209,259.359863 293.734467,257.984283 298.079132,258.668030 
	C303.685913,259.550415 306.807159,262.934570 306.929291,268.136078 
	C307.160126,277.963959 307.097717,287.802612 306.951355,297.633698 
	C306.886658,301.980377 301.988312,306.889557 297.643707,306.950684 
	C287.312439,307.096100 276.976746,307.084808 266.644928,306.959778 
	C261.926697,306.902710 258.149139,302.777527 258.000519,297.998657 
	C257.824677,292.343903 261.554810,287.709686 266.912048,287.025604 
	C268.056335,286.879486 269.235229,287.004333 269.005463,287.004333 
	C256.412231,274.524109 243.175415,261.406067 231.358765,249.695435 
	C231.358765,281.462769 231.358765,316.423981 231.358765,352.215576 
	C234.928391,348.615295 238.056778,345.494385 241.146667,342.335846 
	C246.169205,337.201721 251.615540,337.384338 256.225220,341.142456 
	C259.764099,344.027527 261.055145,350.935486 256.561157,355.726685 
	C246.991135,365.929626 236.960251,375.709351 226.905609,385.442902 
	C224.087585,388.170929 217.449081,387.787201 214.565002,384.963409 
	C204.683014,375.288147 194.786530,365.615540 185.252991,355.601685 
	C180.543961,350.655426 181.014481,345.300018 185.247482,341.315155 
	C189.658310,337.162933 195.075211,337.586700 199.683044,342.184113 
	C202.985794,345.479401 206.294846,348.768402 209.614044,352.047089 
	C209.815155,352.245758 210.130661,352.328552 210.700836,352.625763 
	C210.700836,316.894165 210.700836,281.337219 210.700836,244.543335 
	C196.911026,258.801788 183.654053,272.509277 170.745010,285.857025 
	C174.181396,287.239288 178.061615,287.995392 180.889084,290.139709 
	C184.477356,292.860992 184.465897,297.450928 182.735779,301.235809 
	C181.127197,304.754761 177.830383,306.954681 173.669128,306.979736 
	C164.002853,307.037964 154.334488,307.099731 144.669937,306.957977 
	C139.503906,306.882202 134.099075,301.337128 134.033096,296.130737 
	C133.916962,286.965607 133.892990,277.796112 134.044128,268.631989 
	C134.129471,263.457703 137.946976,258.852814 142.345413,258.026459 
	C147.088516,257.135345 151.455032,259.225739 153.152512,263.760223 
	C154.033539,266.113770 153.992645,268.812439 154.250458,270.557739 
	C167.557861,257.313965 181.253189,243.684143 194.747375,230.254517 
	C160.182922,230.254517 124.959511,230.254517 88.605034,230.254517 
	C92.599113,234.188004 95.897659,237.790894 99.566681,240.965622 
	C104.879692,245.562912 103.633751,252.389954 99.687653,256.721161 
	C96.227257,260.519287 89.427605,259.910980 85.134476,255.637909 
	C76.157410,246.702789 67.190247,237.757324 58.277435,228.758255 
	C52.513153,222.938202 52.533543,218.026459 58.331505,212.179443 
	C67.249725,203.185760 76.216606,194.240128 85.194504,185.305939 
	C89.336845,181.183792 95.374535,180.647766 99.411789,183.948074 
	C103.853279,187.578827 104.504982,192.674530 100.568390,197.846619 
	C97.205124,202.265442 93.261337,206.242401 89.326736,210.694992 
	C124.766685,210.694992 159.990372,210.694992 193.967560,210.694992 
	C181.382431,198.112808 168.074936,184.808441 154.767456,171.504074 
	C155.006607,171.138779 155.245773,170.773483 155.484924,170.408188 
	C155.070862,173.008453 155.173843,175.841003 154.132309,178.159363 
	C152.125702,182.625870 148.234222,184.158005 143.448318,183.150467 
	C138.277908,182.061981 135.192535,179.009140 135.073303,173.924667 
	C134.838943,163.930252 134.832886,153.922058 135.083252,143.928375 
	C135.201874,139.193512 140.154053,135.021774 144.889313,135.008270 
	C154.389191,134.981186 163.893188,135.169189 173.387909,134.945938 
	C180.804672,134.771530 184.044647,138.805344 184.794479,144.907867 
	C185.428986,150.071762 179.931458,154.676788 173.691818,154.996307 
	C173.029739,155.030212 172.364410,155.000870 170.504257,155.000870 
	C181.769073,166.266785 192.384598,176.883331 203.250183,187.749908 
z"/>
</svg>